# xmcd
#
# Track frame offsets:
#	150
#	12450
#	26850
#	37387
#	50212
#	70650
#	83812
#	98512
#	109537
#	129787
#	143887
#	154125
#	167212
#	176362
#	193912
#	204375
#	216337
#	234825
#	248550
#	258000
#	270825
#	281137
#
# Disc length: 3855 seconds
#
# Revision: 5
# Processed by: cddbd v1.5.1PL0 Copyright (c) Steve Scherf et al.
# Submitted via: EasyCDDAExtractor 7.0.5.4
#
DISCID=330f0d16
DTITLE=Various Artist - True Bluegrass
DYEAR=1900
DGENRE=Bluegrass
TTITLE0=Tasty Licks - Leavin'
TTITLE1=Boone Creek - Dark As The Night
TTITLE2=Ted Lundy and The Southern Mountain Boys - The Old Swinging Bridge
TTITLE3=Joe Val and The New England Bluegrass Boys - I Hear a Sweet Voice Callin
TTITLE3=g
TTITLE4=Butch Robins - Sally Goodin
TTITLE5=Vern Williams Band, The - Cabin on a Mountain
TTITLE6=Bluegrass Cardinals, The - Lorene
TTITLE7=Bob Paisley and The Southern Grss - I'm Leaving Detroit
TTITLE8=Phyllis Boyens - To Hell With the Land
TTITLE9=Frank Wakefield - Sleepy-Eyed John
TTITLE10=Al Jones, Frank Necessary and The Spruce Mountain Boys - Letters Have N
TTITLE10=o Arms
TTITLE11=Buzz Busby, Leon Morris - This World's No Place To Live In (But It's 
TTITLE11=Home)
TTITLE12=Connie and Babe and The Backwoods Boys - Home Is Where the Heart Is
TTITLE13=East Virginia - Will the Roses Bloom Again?
TTITLE14=Hazel Dickens and Alice Gerrard - Montana Cowboy
TTITLE15=Allen Shelton - Banjo Bounce
TTITLE16=Tony Rice Unit, The - Midnight on the Stormy Deep
TTITLE17=Lilly Brothers, The - God Gave Noah the Rainbow Sign
TTITLE18=Allen Brothers, The - Who Done It?
TTITLE19=Bailey Brothers % The Happy Valley Boys - Heaven
TTITLE20=J.D.Crowe and The New South - Crying Holy
TTITLE21=Blaine Sprouse - Orange Blossom Special
EXTD=ID3G: 89
EXTT0=
EXTT1=
EXTT2=
EXTT3=
EXTT4=
EXTT5=
EXTT6=
EXTT7=
EXTT8=
EXTT9=
EXTT10=
EXTT11=
EXTT12=
EXTT13=
EXTT14=
EXTT15=
EXTT16=
EXTT17=
EXTT18=
EXTT19=
EXTT20=
EXTT21=
PLAYORDER=
